<?xml version="1.0" encoding="utf-8"?>
<!-- Generator: Adobe Illustrator 24.3.0, SVG Export Plug-In . SVG Version: 6.00 Build 0)  -->
<svg version="1.1" id="레이어_1" xmlns="http://www.w3.org/2000/svg" xmlns:xlink="http://www.w3.org/1999/xlink" x="0px"
	 y="0px" viewBox="0 0 250 100" style="enable-background:new 0 0 250 100;" xml:space="preserve">
<style type="text/css">
	.st0{opacity:0.55;fill:none;stroke:#03CBAC;stroke-width:7;stroke-miterlimit:10;}
	.st1{opacity:0.54;fill:none;stroke:#03CBAC;stroke-width:10;stroke-miterlimit:10;}
	.st2{fill:none;}
	.st3{opacity:0.54;fill:#03CBAC;}
	.st4{fill:none;stroke:#03CBAC;stroke-width:10;stroke-miterlimit:10;}
	.st5{opacity:0.54;fill:none;stroke:#03CBAC;stroke-width:17;stroke-miterlimit:10;}
	.st6{opacity:0.54;}
	.st7{fill:none;stroke:#000000;stroke-width:7;stroke-miterlimit:10;}
	.st8{fill:none;stroke:#03CBAC;stroke-width:15.2447;stroke-miterlimit:10;}
	.st9{fill:none;stroke:#03CBAC;stroke-width:15.2447;stroke-linecap:round;stroke-linejoin:bevel;stroke-miterlimit:10;}
	.st10{fill:#03CBAC;}
	.st11{fill:#03CBAC;stroke:#FFFFFF;stroke-width:3;stroke-miterlimit:10;}
	.st12{fill:none;stroke:#03CBAC;stroke-width:12;stroke-miterlimit:10;}
	.st13{opacity:0.54;fill:none;stroke:#03CBAC;stroke-width:4.5;stroke-miterlimit:10;}
	.st14{fill:#95E3D3;}
	.st15{fill:#1A1A1A;}
	.st16{fill:none;stroke:#1A1A1A;stroke-width:2;stroke-miterlimit:10;}
	.st17{fill:none;stroke:#03CBAC;stroke-miterlimit:10;}
	.st18{opacity:0.54;fill:#FF06C4;}
	.st19{opacity:0.54;fill:none;stroke:#FF06C4;stroke-width:6.5601;stroke-miterlimit:10;}
	.st20{fill:#FF06C4;}
</style>
<g>
	<path class="st10" d="M46.9,40.5H35.9c-1.9-3.3-6.1-5.9-11.5-5.9c-8.1,0-14.1,6-14.1,14.5c0,8.5,6,14.7,14.1,14.7
		c7,0,11.8-4.3,12.8-8.8H23.6v-8.5h24.3v2.7c0,13.7-10.1,23.8-23.7,23.8c-13.7,0-23.9-10-23.9-23.8c0-13.7,10.1-23.8,23.9-23.8
		C35.9,25.3,44.3,32,46.9,40.5z"/>
</g>
<g>
	<path class="st10" d="M77,71.7l-8.7-14.3h-7.9v14.3h-10V26.5h18c11.3,0,18,6.1,18,15.5c0,6.2-2.9,11-8.2,13.5l10.3,16.3H77z
		 M60.4,48.5h7.6c5.3,0,8.4-2.3,8.4-6.5c0-4.3-3.2-6.5-8.4-6.5h-7.6V48.5z"/>
</g>
<g>
	<path class="st10" d="M174.6,28.4h17.1c11.6,0,18.4,6.5,18.4,16.5c0,10.1-6.8,16.6-18.4,16.6h-7.2v12h-10V28.4z M191.3,52.6
		c5.5,0,8.9-2.7,8.9-7.7c0-5-3.3-7.6-8.9-7.6h-6.7v15.3H191.3z"/>
</g>
<g>
	<path class="st10" d="M233,59.4v14.2h-10V59.4l-16.7-31h11.4l10.7,21.4l10.7-21.4h10.6L233,59.4z"/>
</g>
<path class="st10" d="M148.9,25.3c-0.2,0-0.3,0-0.5,0c-12.5,0.2-21.8,9.8-22.7,23.1c0,0,0.2,10.9-9.6,13.3
	c-8.7,2.1-17.6-3.8-17.9-12.8c-0.3-7.8,6-14.2,13.7-14.2c7.7,0,12.7,6.8,12.7,6.8s0.9-4.7,4.5-8.7c0,0-6.9-8-18.4-7.4
	C99.4,25.9,90,35,89,46.3c-1.2,13.7,9.6,25.3,23,25.3c12.5,0,22.8-10.7,23.2-23.1c0,0,0.9-13.7,13.4-13.7c3.6,0,7.1,1.3,9.8,3.8
	c4,3.9,5.4,9.8,3.1,15.6c-1.5,3.8-4.8,6.7-8.7,7.6c-10.1,2.5-16.5-6.3-16.5-6.3s-1.2,4.8-4.6,8.6l2.3,1.9l0,0
	c4.2,3.6,9.4,5.6,15,5.6c0.2,0,0.3,0,0.5,0c12.8-0.3,22.9-10.8,22.7-23.6C171.8,35.4,161.4,25.3,148.9,25.3z"/>
</svg>
